# xmcd
#
# Track frame offsets:
#	150
#	16464
#	27288
#	43511
#	56969
#	78131
#	97113
#	108787
#	120628
#	136579
#	145606
#
# Disc length: 2115 seconds
#
# Revision: 0
# Processed by: cddbd v1.4PL0 Copyright (c) Steve Scherf et al.
# Submitted via: EasyCDDAExtractor 5.0.4.1
#
DISCID=8608410b
DTITLE=Totta's Bluesband - Combination boogie
DYEAR=1985
DGENRE=Blues
TTITLE0=Evil thing
TTITLE1=I live the life I love
TTITLE2=Stop using me
TTITLE3=The wall
TTITLE4=No expectations
TTITLE5=Grinning in your face
TTITLE6=Combination boogie
TTITLE7=That's the truth
TTITLE8=See that my grave is kept clean
TTITLE9=She turns me on
TTITLE10=Going back to the country
EXTD=
EXTT0=
EXTT1=
EXTT2=
EXTT3=
EXTT4=
EXTT5=
EXTT6=
EXTT7=
EXTT8=
EXTT9=
EXTT10=
PLAYORDER=
